<?xml version="1.0" encoding="utf-8"?>
<!-- Generator: Adobe Illustrator 16.0.4, SVG Export Plug-In . SVG Version: 6.00 Build 0)  -->
<!DOCTYPE svg PUBLIC "-//W3C//DTD SVG 1.1//EN" "http://www.w3.org/Graphics/SVG/1.1/DTD/svg11.dtd">
<svg version="1.1" id="Layer_1" xmlns="http://www.w3.org/2000/svg" xmlns:xlink="http://www.w3.org/1999/xlink" x="0px" y="0px"
	 width="2160px" height="2030.809px" viewBox="420 184.584 2160 2030.809" enable-background="new 420 184.584 2160 2030.809"
	 xml:space="preserve">
<path fill="#000000" d="M1074.72,1473.672l434.832,361.104l-0.983,0.841L1074.72,1473.672z M1509.072,1749.288L1116.384,1423.2
	l391.849,326.832L1509.072,1749.288z M2580,897.072v1318.32H420V896.952l230.928-151.368V384.24h551.28l304.608-199.656
	l300.72,199.656h541.392v359.424L2580,897.072z M2348.952,1039.704l143.952-121.896l-143.952-95.567V1039.704z M1321.584,384.24
	h367.632l-182.64-121.248L1321.584,384.24z M716.376,1089.576l400.008,333.624l391.849,326.832l0.863-0.744l774.433-659.521V778.8
	v-78.576V449.688h-377.4h-118.344h-566.04h-119.376H716.376v253.009v78.264V1089.576z M507.672,917.76l143.256,118.969V823.872
	L507.672,917.76z M2514.552,985.224l-1004.136,850.248l-0.84-0.696l-434.856-361.104L485.448,984.336v1165.632h2029.128V985.224
	H2514.552z M1495.128,1402.368c-169.584,0-313.368-124.152-313.368-322.729c0-213.071,147.864-397.176,377.544-397.176
	c179.952,0,300.96,126.168,300.96,298.896c0,155.159-86.903,246.216-184.128,246.216c-41.399,0-79.655-27.937-76.512-91.057h-4.151
	c-36.192,61.032-83.809,91.057-145.849,91.057c-59.976,0-111.696-48.648-111.696-130.368c0-128.232,101.376-245.088,245.16-245.088
	c44.424,0,83.76,9.312,110.616,21.72l-35.112,187.2c-15.552,78.6-3.144,114.84,31.032,115.848
	c52.728,1.08,111.696-69.288,111.696-189.288c0-149.952-89.977-257.544-250.32-257.544c-168.576,0-310.271,133.464-310.271,343.368
	c0,172.729,112.703,279.264,265.799,279.264c58.969,0,113.761-12.408,156.169-36.191l16.56,44.496
	C1622.352,1390.968,1564.464,1402.368,1495.128,1402.368z M1622.352,914.136c-10.319-3.071-27.936-7.248-51.72-7.248
	c-90.983,0-164.424,85.824-164.424,186.192c0,45.504,22.704,78.6,68.28,78.6c59.976,0,114.768-76.512,126.168-140.688
	L1622.352,914.136z"/>
</svg>
