<?xml version="1.0" encoding="utf-8"?>
<!-- Generator: Adobe Illustrator 16.0.4, SVG Export Plug-In . SVG Version: 6.00 Build 0)  -->
<!DOCTYPE svg PUBLIC "-//W3C//DTD SVG 1.1//EN" "http://www.w3.org/Graphics/SVG/1.1/DTD/svg11.dtd">
<svg version="1.1" id="Layer_1" xmlns="http://www.w3.org/2000/svg" xmlns:xlink="http://www.w3.org/1999/xlink" x="0px" y="0px"
	 width="2160px" height="1645.08px" viewBox="420 384 2160 1645.08" enable-background="new 420 384 2160 1645.08"
	 xml:space="preserve">
<title>magn_gls-10 copy 2</title>
<desc>Created with Sketch.</desc>
<g>
	<path fill="#FFFFFF" d="M2471.664,945.672H2370.12v823.2c0,47.903-38.832,86.736-86.736,86.736H738.216v65.136h1733.448V945.672z
		 M528.336,1747.271h1733.448V772.2H528.336V1747.271z M555.432,575.855c0,28.656,23.232,51.912,51.912,51.912
		c28.681,0,51.912-23.256,51.912-51.912c0-28.68-23.231-51.911-51.912-51.911C578.664,523.944,555.432,547.176,555.432,575.855
		L555.432,575.855z M731.496,575.855c0,28.656,23.232,51.912,51.912,51.912c28.656,0,51.912-23.256,51.912-51.912
		c0-28.68-23.256-51.911-51.912-51.911C754.729,523.944,731.496,547.176,731.496,575.855L731.496,575.855z M907.536,575.855
		c0,28.656,23.231,51.912,51.912,51.912c28.68,0,51.911-23.256,51.911-51.912c0-28.68-23.231-51.911-51.911-51.911
		C930.768,523.944,907.536,547.176,907.536,575.855L907.536,575.855z M2580,644.184V1942.32c0,47.928-38.832,86.76-86.736,86.76
		H716.616c-47.904,0-86.736-38.832-86.736-86.76v-86.712H506.736c-47.904,0-86.736-38.833-86.736-86.736V470.736
		C420,422.832,458.832,384,506.736,384h1776.647c47.904,0,86.736,38.832,86.736,86.736v86.712h123.144
		C2541.168,557.448,2580,596.28,2580,644.184L2580,644.184z M1834.008,1047.576l-461.88,461.832l-298.296-273.672l77.904-77.929
		l212.496,188.448l384.264-384.216L1834.008,1047.576z"/>
</g>
</svg>
